<svg width="16" height="16" viewBox="0 0 16 16" fill="none" xmlns="http://www.w3.org/2000/svg">
<g clip-path="url(#clip0_1_515)">
<mask id="mask0_1_515" style="mask-type:luminance" maskUnits="userSpaceOnUse" x="0" y="0" width="16" height="16">
<path d="M15.7434 0.818481H0.68457V15.8773H15.7434V0.818481Z" fill="white"/>
</mask>
<g mask="url(#mask0_1_515)">
<path d="M6.95908 15.8773H0.68457V14.6224H6.95908V15.8773ZM5.70418 12.1126H0.68457V13.3675H5.70418V12.1126ZM4.44928 9.60283H0.68457V10.8577H4.44928V9.60283ZM8.21399 0.818481C6.21772 0.820641 4.30384 1.6146 2.89227 3.02618C1.4807 4.43775 0.686729 6.35163 0.68457 8.34789H1.93947C1.93947 7.10692 2.30746 5.89381 2.99692 4.86197C3.68637 3.83012 4.66632 3.02591 5.81283 2.551C6.95935 2.0761 8.22094 1.95185 9.43812 2.19395C10.6552 2.43605 11.7733 3.03364 12.6507 3.91114C13.5283 4.78865 14.1258 5.90666 14.3679 7.1238C14.6101 8.34093 14.4857 9.60255 14.0109 10.7491C13.536 11.8955 12.7318 12.8755 11.7 13.565C10.668 14.2544 9.45496 14.6224 8.21399 14.6224V15.8773C10.2109 15.8773 12.126 15.0841 13.5381 13.672C14.9501 12.26 15.7434 10.3449 15.7434 8.34789C15.7434 6.35097 14.9501 4.43584 13.5381 3.02379C12.126 1.61175 10.2109 0.818481 8.21399 0.818481ZM7.58653 5.21064V8.60766L9.65271 10.6739L10.54 9.78664L8.84143 8.08813V5.21064H7.58653Z" fill="#3BB77E"/>
</g>
</g>
<defs>
<clipPath id="clip0_1_515">
<rect width="16" height="16" fill="white"/>
</clipPath>
</defs>
</svg>
