<svg width="16" height="16" viewBox="0 0 16 16" fill="none" xmlns="http://www.w3.org/2000/svg">
<mask id="mask0_1_497" style="mask-type:luminance" maskUnits="userSpaceOnUse" x="0" y="0" width="16" height="16">
<path d="M15.3728 0.409424H0.313965V15.4682H15.3728V0.409424Z" fill="white"/>
</mask>
<g mask="url(#mask0_1_497)">
<path d="M13.4903 8.20498V7.31149C13.4903 5.8138 12.8954 4.37744 11.8364 3.31841C10.7774 2.25939 9.34097 1.66443 7.84328 1.66443C6.34558 1.66443 4.90924 2.25939 3.8502 3.31841C2.79117 4.37744 2.19622 5.8138 2.19622 7.31149V8.20498C1.53812 8.49476 0.999541 9.00181 0.670649 9.64123C0.341752 10.2807 0.242501 11.0137 0.389511 11.7176C0.53652 12.4215 0.920867 13.0535 1.4782 13.5079C2.03555 13.9622 2.73206 14.2113 3.45112 14.2135H4.70603V7.93894H3.45112V7.31149C3.45112 6.14662 3.91387 5.02945 4.73756 4.20577C5.56124 3.38208 6.6784 2.91934 7.84328 2.91934C9.00815 2.91934 10.1253 3.38208 10.949 4.20577C11.7727 5.02945 12.2354 6.14662 12.2354 7.31149V7.93894H10.9806V12.9586H8.47073V14.2135H12.2354C12.9545 14.2113 13.651 13.9622 14.2083 13.5079C14.7657 13.0535 15.1501 12.4215 15.2971 11.7176C15.4441 11.0137 15.3448 10.2807 15.0159 9.64123C14.687 9.00181 14.1485 8.49476 13.4903 8.20498ZM3.45112 12.9586C2.95189 12.9586 2.4731 12.7602 2.1201 12.4073C1.76709 12.0542 1.56876 11.5754 1.56876 11.0762C1.56876 10.5769 1.76709 10.0982 2.1201 9.74513C2.4731 9.39216 2.95189 9.19384 3.45112 9.19384V12.9586ZM12.2354 12.9586V9.19384C12.7346 9.19384 13.2134 9.39216 13.5664 9.74513C13.9195 10.0982 14.1178 10.5769 14.1178 11.0762C14.1178 11.5754 13.9195 12.0542 13.5664 12.4073C13.2134 12.7602 12.7346 12.9586 12.2354 12.9586Z" fill="#3BB77E"/>
</g>
</svg>
