<svg width="60" height="60" viewBox="0 0 60 60" fill="none" xmlns="http://www.w3.org/2000/svg">
<mask id="mask0_1_368" style="mask-type:luminance" maskUnits="userSpaceOnUse" x="0" y="0" width="60" height="60">
<path d="M59.305 0H0V59.305H59.305V0Z" fill="white"/>
</mask>
<g mask="url(#mask0_1_368)">
<path d="M37.7141 4.28577H29.1426L18.8569 14.5715L23.9998 17.5715L29.1426 12.4286L39.8569 23.1429L43.7141 27.8572L49.2855 28.7143L51.8569 24.0001V7.71434L47.5712 4.28577H37.7141Z" fill="#FDC040"/>
<path d="M55.3668 12.3328H53.048L53.0502 8.18732C53.0516 5.40423 50.7888 3.13876 48.0052 3.13739L30.4063 3.12744H30.4041C29.4023 3.12744 28.4603 3.51747 27.7517 4.22602L1.47819 30.4995C0.524855 31.4529 0 32.7202 0 34.0686C0 35.4169 0.524855 36.6842 1.47819 37.6376L18.5288 54.6882C19.5129 55.6723 20.8055 56.1641 22.0977 56.1641C23.3905 56.1641 24.6831 55.6723 25.6672 54.6882L42.2092 38.1462C42.6617 37.6937 42.6617 36.9602 42.2092 36.5083C41.7567 36.0558 41.0233 36.0558 40.5709 36.5083L24.0289 53.0503C22.9642 54.1149 21.2318 54.1149 20.1671 53.0503L3.11655 35.9997C2.60075 35.4839 2.3166 34.7979 2.3166 34.0686C2.3166 33.3392 2.60075 32.6533 3.11655 32.1374L29.3896 5.86438C29.6607 5.59336 30.0208 5.44404 30.4041 5.44404H30.405L48.0039 5.454C49.5097 5.45445 50.7345 6.68062 50.7336 8.18641L50.7282 17.8927H45.5109C45.0615 17.8927 44.6547 17.7089 44.3607 17.413C44.8453 17.2053 45.2996 16.9053 45.6945 16.5103C47.3591 14.8453 47.3591 12.1369 45.6945 10.4723C44.0295 8.8072 41.3211 8.8072 39.656 10.4723C37.9914 12.1369 37.9914 14.8453 39.656 16.5103C40.2731 17.1275 41.0342 17.5153 41.8319 17.675C42.3988 19.155 43.8336 20.2093 45.5109 20.2093H50.7268L50.7237 25.7618C50.7237 26.1451 50.5743 26.5048 50.3033 26.7753L47.1234 29.9557C46.6709 30.4081 46.6709 31.1416 47.1234 31.5941C47.5755 32.0461 48.3088 32.0461 48.7613 31.5941L51.9417 28.4137C52.6493 27.7056 53.0398 26.7645 53.0403 25.7632L53.0434 20.2093H55.3668C57.5382 20.2093 59.305 18.4429 59.305 16.271C59.305 14.0996 57.5382 12.3328 55.3668 12.3328ZM41.2943 12.1102C41.6753 11.7292 42.1753 11.5392 42.6757 11.5392C43.1757 11.5392 43.6756 11.7296 44.0566 12.1102C44.177 12.231 44.2765 12.3644 44.3589 12.5052C43.0875 12.8947 42.0885 13.9123 41.7233 15.1946C41.5699 15.1091 41.4247 15.0027 41.2943 14.8724C40.5328 14.1105 40.5328 12.8717 41.2943 12.1102ZM55.3668 17.8927H53.0448L53.0466 14.6494H55.3668C56.2609 14.6494 56.9884 15.3769 56.9884 16.271C56.9884 17.165 56.2609 17.8927 55.3668 17.8927Z" fill="#3BB77E"/>
<path d="M18.6965 32.352C18.839 32.8646 19.3046 33.1999 19.8114 33.1999C19.9146 33.1999 20.019 33.1863 20.1227 33.1574L32.0134 29.8476C32.6296 29.6761 32.9902 29.0373 32.8188 28.421C32.6472 27.8052 32.0088 27.4446 31.3921 27.616L19.5014 30.9254C18.8856 31.0973 18.525 31.7357 18.6965 32.352Z" fill="#3BB77E"/>
<path d="M23.9305 33.8804C23.2853 34.5256 22.9302 35.383 22.9302 36.2956C22.9302 37.2078 23.2853 38.0652 23.9305 38.7105C24.5965 39.3761 25.4707 39.709 26.3453 39.709C27.2199 39.709 28.0945 39.3761 28.7605 38.7105C30.0921 37.3788 30.0921 35.212 28.7605 33.8804C27.429 32.5488 25.2621 32.5488 23.9305 33.8804ZM27.1222 37.072C26.6937 37.5005 25.9969 37.5005 25.5685 37.072C25.3608 36.8649 25.2468 36.5889 25.2468 36.2952C25.2468 36.002 25.3612 35.726 25.5685 35.5183C25.7829 35.3043 26.0643 35.197 26.3453 35.197C26.6268 35.197 26.9082 35.3043 27.1222 35.5183C27.5507 35.9468 27.5507 36.6441 27.1222 37.072Z" fill="#3BB77E"/>
<path d="M29.3345 26.9839C30.6661 25.6519 30.6661 23.4855 29.3345 22.1539C28.6894 21.5088 27.8315 21.1536 26.9193 21.1536C26.0071 21.1536 25.1493 21.5088 24.5045 22.1539C23.173 23.4855 23.173 25.6519 24.5045 26.9839C25.1705 27.6495 26.0447 27.9825 26.9193 27.9825C27.7939 27.9825 28.6685 27.6495 29.3345 26.9839ZM26.1425 23.7918C26.3501 23.5842 26.6261 23.4702 26.9193 23.4702C27.2129 23.4702 27.4889 23.5842 27.6962 23.7918C28.1247 24.2203 28.1247 24.9171 27.6962 25.3456C27.2681 25.7741 26.5709 25.7741 26.1425 25.3456C25.7144 24.9171 25.7144 24.2203 26.1425 23.7918Z" fill="#3BB77E"/>
<path d="M11.5204 29.9585C11.068 29.506 10.3345 29.506 9.88201 29.9585L6.59081 33.2497C6.37363 33.4669 6.25146 33.7614 6.25146 34.0686C6.25146 34.3759 6.37363 34.6704 6.59081 34.8876L21.2791 49.5758C21.5049 49.8016 21.8017 49.9148 22.098 49.9148C22.3944 49.9148 22.6907 49.8016 22.917 49.5758L44.8776 27.6147C45.3301 27.1622 45.3301 26.4288 44.8776 25.9764L30.1899 11.2886C29.9727 11.0714 29.6781 10.9492 29.3709 10.9492C29.0637 10.9492 28.7691 11.0714 28.552 11.2886L16.4345 23.4059C15.9821 23.8584 15.9821 24.5918 16.4345 25.0442C16.8866 25.4963 17.62 25.4963 18.0724 25.0442L29.3709 13.7459L42.4208 26.7957L22.098 47.1185L9.0481 34.0686L11.5204 31.5964C11.9724 31.1439 11.9728 30.4109 11.5204 29.9585Z" fill="#3BB77E"/>
<path d="M44.6666 32.8927C44.3617 32.8927 44.063 33.0166 43.8476 33.232C43.6323 33.4474 43.5083 33.7465 43.5083 34.051C43.5083 34.3555 43.6323 34.6546 43.8476 34.87C44.063 35.0854 44.3617 35.2093 44.6666 35.2093C44.9711 35.2093 45.2697 35.0854 45.4856 34.87C45.701 34.6546 45.8249 34.3555 45.8249 34.051C45.8249 33.7465 45.701 33.4474 45.4856 33.232C45.2697 33.0166 44.9711 32.8927 44.6666 32.8927Z" fill="#3BB77E"/>
<path d="M14.7956 28.3197C15.0124 28.1044 15.1354 27.8066 15.1354 27.5007C15.1354 27.1962 15.0124 26.8985 14.7956 26.6817C14.5803 26.4664 14.2825 26.3424 13.9771 26.3424C13.6721 26.3424 13.3735 26.4664 13.1582 26.6817C12.9424 26.8971 12.8188 27.1962 12.8188 27.5007C12.8188 27.8066 12.9424 28.1044 13.1582 28.3197C13.3744 28.5364 13.6721 28.659 13.9771 28.659C14.2825 28.659 14.5803 28.5364 14.7956 28.3197Z" fill="#3BB77E"/>
</g>
</svg>
