<svg width="16" height="17" viewBox="0 0 16 17" fill="none" xmlns="http://www.w3.org/2000/svg">
<g clip-path="url(#clip0_1_486)">
<mask id="mask0_1_486" style="mask-type:luminance" maskUnits="userSpaceOnUse" x="0" y="0" width="16" height="17">
<path d="M16 0.750977H0V16.751H16V0.750977Z" fill="white"/>
</mask>
<g mask="url(#mask0_1_486)">
<path d="M7.9998 16.7564L7.53313 16.3564C6.8898 15.8178 1.27246 10.9664 1.27246 7.41776C1.27246 5.63356 1.98124 3.92244 3.24285 2.66082C4.50447 1.3992 6.2156 0.69043 7.9998 0.69043C9.784 0.69043 11.4951 1.3992 12.7568 2.66082C14.0184 3.92244 14.7271 5.63356 14.7271 7.41776C14.7271 10.9664 9.1098 15.8178 8.46913 16.3591L7.9998 16.7564ZM7.9998 2.1451C6.60189 2.14668 5.26169 2.70271 4.27321 3.69118C3.28474 4.67965 2.72872 6.01985 2.72713 7.41776C2.72713 9.6471 6.18313 13.2084 7.9998 14.8384C9.81646 13.2078 13.2725 9.64443 13.2725 7.41776C13.2709 6.01985 12.7149 4.67965 11.7264 3.69118C10.7379 2.70271 9.39771 2.14668 7.9998 2.1451Z" fill="#3BB77E"/>
<path d="M7.99967 10.0843C7.47225 10.0843 6.95668 9.92791 6.51815 9.6349C6.07963 9.34188 5.73784 8.9254 5.536 8.43813C5.33417 7.95086 5.28136 7.41469 5.38425 6.8974C5.48715 6.38012 5.74112 5.90497 6.11406 5.53203C6.487 5.15909 6.96216 4.90511 7.47944 4.80222C7.99672 4.69932 8.5329 4.75213 9.02017 4.95397C9.50744 5.1558 9.92392 5.49759 10.217 5.93612C10.51 6.37465 10.6664 6.89023 10.6664 7.41764C10.6664 8.12489 10.3854 8.80317 9.88529 9.30326C9.38519 9.80336 8.70692 10.0843 7.99967 10.0843ZM7.99967 6.08431C7.73596 6.08431 7.47819 6.16251 7.25892 6.30902C7.03966 6.45553 6.86875 6.66377 6.76784 6.9074C6.66693 7.15103 6.64051 7.41912 6.69196 7.67776C6.7434 7.93641 6.8704 8.17398 7.05687 8.36045C7.24334 8.54692 7.48092 8.67391 7.73956 8.72536C7.9982 8.77681 8.26628 8.7504 8.50992 8.64948C8.75355 8.54857 8.96179 8.37767 9.1083 8.1584C9.25482 7.93914 9.33302 7.68135 9.33302 7.41764C9.33302 7.06402 9.19253 6.72488 8.94248 6.47484C8.69243 6.22479 8.35329 6.08431 7.99967 6.08431Z" fill="#3BB77E"/>
</g>
</g>
<defs>
<clipPath id="clip0_1_486">
<rect width="16" height="17" fill="white"/>
</clipPath>
</defs>
</svg>
