<svg width="181" height="56" viewBox="0 0 181 56" fill="none" xmlns="http://www.w3.org/2000/svg">
<g clip-path="url(#clip0_1_5)">
<mask id="mask0_1_5" style="mask-type:luminance" maskUnits="userSpaceOnUse" x="0" y="5" width="66" height="51">
<path d="M65.8048 5.02271H0.509277V55.25H65.8048V5.02271Z" fill="white"/>
</mask>
<g mask="url(#mask0_1_5)">
<path opacity="0.8" d="M49.4364 38.4578C55.6533 39.1017 61.4413 32.4 62.3642 23.4891C63.2871 14.5782 58.9955 6.83249 52.7786 6.18859C46.5617 5.54469 40.7738 12.2464 39.8509 21.1573C38.9279 30.0682 43.2195 37.8139 49.4364 38.4578Z" fill="#FDC040"/>
<path d="M40.1178 42.7295C46.0327 40.71 48.4812 32.2001 45.5866 23.7221C42.692 15.244 35.5505 10.0083 29.6356 12.0278C23.7208 14.0472 21.2723 22.5571 24.1669 31.0352C27.0614 39.5132 34.2029 44.7489 40.1178 42.7295Z" fill="#FDC040"/>
<path d="M23.1113 32.6477H63.3524C63.6736 32.7873 64.4123 33.3174 64.7976 34.3219C65.2794 35.5776 66.6416 53.9943 43.6207 50.2273C25.5074 50.2273 21.2808 49.6691 21.4414 49.3901C24.7855 48.553 25.2041 45.2045 25.6226 42.6932C26.0412 40.1818 23.1113 32.6477 23.1113 32.6477Z" fill="#81B13D"/>
<path d="M53.3457 15.4301C52.8173 15.4301 52.3892 15.8583 52.3892 16.3865V16.5393C52.3892 17.0677 52.8173 17.4958 53.3457 17.4958C53.874 17.4958 54.3021 17.0677 54.3021 16.5393V16.3865C54.3021 15.8582 53.874 15.4301 53.3457 15.4301Z" fill="#253D4E"/>
<path d="M55.83 19.6973C55.3017 19.6973 54.8735 20.1254 54.8735 20.6537V20.8065C54.8735 21.3348 55.3017 21.7629 55.83 21.7629C56.3584 21.7629 56.7865 21.3348 56.7865 20.8065V20.6537C56.7865 20.1254 56.3584 19.6973 55.83 19.6973Z" fill="#253D4E"/>
<path d="M34.8871 18.799L34.8162 18.6635C34.5718 18.195 33.9937 18.0135 33.5258 18.2582C33.0575 18.5027 32.8761 19.0804 33.1205 19.5487L33.1913 19.6842C33.3617 20.0112 33.695 20.1984 34.0399 20.1984C34.1891 20.1984 34.3403 20.1634 34.4817 20.0895C34.95 19.845 35.1315 19.2673 34.8871 18.799Z" fill="#253D4E"/>
<path d="M39.0643 21.4317L38.9935 21.2962C38.7491 20.8277 38.1711 20.6462 37.7031 20.8908C37.2347 21.1354 37.0533 21.7131 37.2977 22.1814L37.3686 22.317C37.539 22.6439 37.8722 22.8311 38.2171 22.8311C38.3663 22.8311 38.5176 22.7962 38.659 22.7222C39.1273 22.4778 39.3088 21.9 39.0643 21.4317Z" fill="#253D4E"/>
<path d="M33.113 40.4614L30.2681 37.6162C29.8945 37.2427 29.2888 37.2426 28.9155 37.6162C28.5419 37.9897 28.5419 38.5953 28.9154 38.9687L31.7603 41.8138C31.9472 42.0007 32.1918 42.094 32.4366 42.094C32.6813 42.094 32.9262 42.0007 33.113 41.814C33.4866 41.4404 33.4866 40.8348 33.113 40.4614Z" fill="#253D4E"/>
<path d="M41.566 38.6789C41.2597 38.2486 40.6627 38.1478 40.2321 38.4544L30.3032 45.5232C29.8729 45.8295 29.7724 46.4268 30.0787 46.8571C30.2652 47.1193 30.5596 47.2589 30.8587 47.2589C31.0505 47.2589 31.2443 47.2013 31.4125 47.0815L41.3414 40.0127C41.7717 39.7064 41.8723 39.1092 41.566 38.6789Z" fill="#253D4E"/>
<path d="M45.0762 40.1216C44.7701 39.6913 44.1729 39.5906 43.7423 39.8972L39.9311 42.6105C39.5007 42.9171 39.4004 43.5142 39.7067 43.9445C39.8932 44.2067 40.1876 44.3464 40.4866 44.3464C40.6785 44.3464 40.8722 44.2887 41.0405 44.1688L44.8518 41.4555C45.2821 41.1492 45.3825 40.552 45.0762 40.1216Z" fill="#253D4E"/>
<path d="M65.6241 35.7817C65.315 35.3532 64.7173 35.2565 64.2887 35.5652L63.9701 35.795C63.9715 35.7129 63.9733 35.631 63.9733 35.5488C63.9733 34.6364 63.6183 33.7778 62.9717 33.1295C62.3253 32.4846 61.4666 32.1296 60.5543 32.1296H60.2711C61.3208 30.1014 61.8538 27.6592 61.8538 24.8399C61.8538 19.3108 59.7812 13.2671 56.5737 9.44313C56.234 9.0383 55.6308 8.98531 55.2261 9.32501C54.8215 9.66455 54.7686 10.2679 55.108 10.6725C58.0439 14.1724 59.941 19.7336 59.941 24.8399C59.941 27.7827 59.3084 30.232 58.0608 32.1296H56.1671L57.0085 31.5306C57.4389 31.2243 57.5393 30.627 57.233 30.1967C56.9268 29.7664 56.3298 29.6657 55.8991 29.9723L52.869 32.1296H47.1796C47.7529 29.2253 47.1557 25.9807 45.423 22.6616C44.1826 20.2864 42.421 17.9882 40.3947 16.0411C42.4818 10.7619 45.9359 7.38477 49.3014 7.38477C50.3179 7.38477 51.3422 7.6805 52.3457 8.26409C52.8024 8.52933 53.3879 8.37438 53.6534 7.91784C53.9188 7.46115 53.7639 6.87566 53.3072 6.61014C52.0077 5.85478 50.66 5.4718 49.3014 5.4718C45.2297 5.4718 41.3145 8.97049 38.8801 14.6928C38.0509 14.0105 37.1916 13.3902 36.3162 12.8496C32.1959 10.3049 28.2941 9.75571 25.3302 11.303C22.5963 12.7318 20.8452 15.8998 20.3991 20.2234C20.3448 20.7489 20.7269 21.2188 21.2523 21.2729C21.779 21.328 22.2478 20.945 22.3018 20.4197C22.6799 16.7556 24.0699 14.12 26.2156 12.9986C31.4398 10.2712 40.0676 16.5393 43.7272 23.547C45.3549 26.6649 45.8557 29.5481 45.222 32.1297H34.498C34.4953 32.1297 34.4928 32.1297 34.4902 32.1297H29.5889L27.9836 30.5245C27.6099 30.1511 27.0044 30.1511 26.6309 30.5245C26.2574 30.8981 26.2574 31.5037 26.6309 31.8772L26.8833 32.1296H24.2574C23.192 29.7082 22.4916 26.9276 22.2745 24.2302C22.2321 23.7037 21.7714 23.31 21.2444 23.3536C20.7178 23.3959 20.3254 23.857 20.3678 24.3837C20.5441 26.5757 20.9966 28.7568 21.6949 30.8153C18.9688 28.4922 15.4081 27.2438 11.7419 27.443C11.4002 27.4616 11.0943 27.6614 10.9402 27.9669C9.50175 30.815 9.09734 34.0298 9.69387 37.0742C9.69948 37.1666 9.71773 37.2552 9.74761 37.3384C9.93504 38.2071 10.2054 39.0601 10.5564 39.8856C6.4624 40.5206 2.82687 42.9337 0.647753 46.5282C0.470357 46.8208 0.46296 47.1859 0.628113 47.4857C2.16932 50.2828 4.59866 52.4317 7.45268 53.6562C7.52881 53.7008 7.60826 53.7346 7.69001 53.7563C9.26618 54.3989 10.9658 54.762 12.7136 54.7981C12.8094 54.8001 12.9041 54.801 12.9997 54.801C13.68 54.801 14.354 54.7496 15.018 54.6531C15.0806 54.6494 15.1427 54.6413 15.203 54.6257C18.0143 54.1784 20.6279 52.8875 22.6913 50.9478C22.7381 50.9548 22.7856 50.9597 22.8343 50.9597H27.1262C27.6546 50.9597 28.0827 50.5316 28.0827 50.0032C28.0827 49.4749 27.6546 49.0467 27.1262 49.0467H24.38C24.631 48.7065 24.8688 48.3544 25.0902 47.989C25.097 47.9778 25.1024 47.9661 25.1087 47.9548C25.1144 47.9444 25.1213 47.9351 25.1267 47.9243C27.3545 43.5107 27.1024 38.2172 24.4847 34.0425H28.7962L31.4003 36.6466C31.5871 36.8333 31.832 36.9267 32.0767 36.9267C32.3214 36.9267 32.5663 36.8333 32.7531 36.6466C33.1266 36.2729 33.1266 35.6675 32.7531 35.2939L31.5018 34.0425H34.098L37.6489 37.5935C37.8358 37.7803 38.0806 37.8736 38.3253 37.8736C38.5701 37.8736 38.815 37.7803 39.0018 37.5935C39.3753 37.2199 39.3753 36.6143 39.0018 36.2408L36.8036 34.0427H45.9405L45.9436 34.0429L45.9468 34.0427H50.1823L48.0941 35.5293C47.6637 35.8356 47.5633 36.4328 47.8696 36.8631C48.0562 37.1254 48.3505 37.265 48.6496 37.265C48.8414 37.265 49.0351 37.2073 49.2035 37.0875L53.4803 34.0425H58.5591L58.5608 34.0427L58.563 34.0425H60.5549C60.9572 34.0425 61.3361 34.1993 61.6197 34.482C61.9043 34.7673 62.061 35.1462 62.061 35.5487C62.061 36.1245 62.0246 36.6918 61.9543 37.2489L54.9311 42.3129C54.5028 42.6219 54.4058 43.2197 54.7147 43.6483C54.9018 43.9076 55.1945 44.0455 55.4914 44.0455C55.6852 44.0455 55.8809 43.9867 56.0501 43.8647L61.2705 40.1007C60.2275 43.003 58.2171 45.4475 55.6298 47.0439L44.9631 36.3773C44.5894 36.0038 43.9839 36.0038 43.6103 36.3773C43.2368 36.7509 43.2368 37.3564 43.6103 37.73L53.8484 47.968C52.4621 48.5603 50.9571 48.9265 49.38 49.021L45.2101 44.8513C44.8367 44.4779 44.2311 44.4777 43.8575 44.8514C43.484 45.225 43.484 45.8305 43.8576 46.2041L46.7001 49.0464H37.3364L35.8018 47.5119C35.4281 47.1384 34.8226 47.1384 34.449 47.5119C34.0755 47.8855 34.0755 48.4911 34.449 48.8646L34.6309 49.0464H31.1112C30.5828 49.0464 30.1547 49.4746 30.1547 50.0029C30.1547 50.5313 30.5828 50.9594 31.1112 50.9594H36.543L38.7003 53.1167C38.8871 53.3034 39.132 53.3968 39.3768 53.3968C39.6215 53.3968 39.8663 53.3034 40.0532 53.1167C40.4267 52.7431 40.4267 52.1376 40.0532 51.764L39.2485 50.9594H48.5612C50.9726 50.9594 53.2561 50.4022 55.2905 49.4108L56.094 50.2143C56.2808 50.401 56.5257 50.4943 56.7704 50.4943C57.0152 50.4943 57.26 50.401 57.4469 50.2143C57.8204 49.8406 57.8204 49.2351 57.4469 48.8615L57.0137 48.4285C60.4623 46.1581 62.9493 42.5421 63.7207 38.3334L65.4078 37.1169C65.8361 36.808 65.933 36.2103 65.6241 35.7817ZM22.7431 34.867C22.8504 35.0312 22.9519 35.1981 23.0506 35.3663L20.6294 40.1705L17.8649 35.9404L19.7997 31.7501C20.9424 32.5966 21.9446 33.6453 22.7431 34.867ZM19.582 42.0645L14.309 42.33C13.9536 41.92 13.6229 41.4846 13.3219 41.0239C12.6929 40.0615 12.213 39.0265 11.8824 37.9529L16.8421 37.8719L19.582 42.0645ZM18.1648 30.7274L16.6302 34.0508L13.5801 29.3837C15.193 29.5269 16.7502 29.9899 18.1648 30.7274ZM11.9782 30.4291L15.6051 35.9789L11.4578 36.0466C11.1953 34.174 11.3659 32.2471 11.9782 30.4291ZM11.4838 41.6949C11.5607 41.8208 11.6394 41.9461 11.7205 42.0703C12.1455 42.7206 12.6207 43.3278 13.138 43.8903C13.1758 43.9395 13.2182 43.9846 13.2645 44.0255C14.1237 44.9355 15.0955 45.7224 16.1504 46.37L11.1181 46.2665L8.74545 42.2983C9.62405 41.9948 10.5419 41.7907 11.4838 41.6949ZM6.97749 43.0689L8.86138 46.22L3.28471 46.1054C4.31235 44.8502 5.56968 43.8216 6.97749 43.0689ZM7.5913 51.6165C5.89706 50.7767 4.40227 49.5488 3.24683 48.0178L9.87502 48.1541L7.5913 51.6165ZM14.3877 52.8072C13.8486 52.8695 13.3025 52.8965 12.7525 52.8856C11.603 52.8618 10.4776 52.6741 9.40489 52.3413L12.136 48.2005L17.1432 48.3035L14.3877 52.8072ZM16.9958 52.2097L19.3579 48.3491L22.2614 48.4088C22.3211 48.4143 22.381 48.4182 22.4409 48.4229C21.0015 50.1702 19.1085 51.4754 16.9958 52.2097ZM22.3732 46.4979C20.1539 46.2804 18.044 45.4575 16.2721 44.1466L20.7937 43.9188L22.4806 46.5001L22.3732 46.4979ZM24.0873 45.4619L21.8388 42.0213L24.0706 37.5928C24.9343 40.128 24.9486 42.9028 24.0873 45.4619Z" fill="#253D4E"/>
<path d="M56.2371 37.4214C55.928 36.9929 55.3302 36.8963 54.9018 37.2051L51.5313 39.6355C51.1029 39.9444 51.0061 40.5421 51.315 40.9707C51.502 41.23 51.7947 41.3679 52.0915 41.3679C52.2855 41.3679 52.4811 41.3091 52.6502 41.1871L56.0208 38.7567C56.4492 38.4478 56.5461 37.85 56.2371 37.4214Z" fill="#253D4E"/>
</g>
<path d="M80.0634 51.0644L80.0543 46.8306L77.9556 50.3344H77.4264L75.3277 46.8853V51.0644H74.1963V44.6772H75.1726L77.7093 48.911L80.2003 44.6772H81.1766L81.1858 51.0644H80.0634ZM87.9664 49.5862H84.7728L84.1429 51.0644H82.9202L85.7941 44.6772H86.9627L89.8458 51.0644H88.6052L87.9664 49.5862ZM87.5738 48.6555L86.3692 45.8634L85.1738 48.6555H87.5738ZM95.75 51.0644L94.4449 49.1939C94.3897 49.2 94.3076 49.203 94.1988 49.203H92.7564V51.0644H91.5702V44.6772H94.1988C94.7521 44.6772 95.2326 44.7684 95.6403 44.9509C96.0539 45.1334 96.3703 45.395 96.5888 45.7356C96.8081 46.0763 96.9178 46.4808 96.9178 46.9492C96.9178 47.4298 96.7989 47.8434 96.562 48.1902C96.3301 48.5369 95.9961 48.7954 95.5583 48.9658L97.0274 51.0644H95.75ZM95.7224 46.9492C95.7224 46.5416 95.5884 46.2284 95.3205 46.0094C95.0527 45.7904 94.6609 45.6809 94.1435 45.6809H92.7564V48.2267H94.1435C94.6609 48.2267 95.0527 48.1172 95.3205 47.8982C95.5884 47.6731 95.7224 47.3568 95.7224 46.9492ZM100.363 45.6809H98.2471V44.6772H103.667V45.6809H101.55V51.0644H100.363V45.6809ZM113.695 51.1648L112.891 50.3892C112.295 50.9002 111.58 51.1557 110.747 51.1557C110.302 51.1557 109.904 51.0827 109.552 50.9367C109.198 50.7907 108.922 50.5899 108.721 50.3344C108.52 50.0728 108.42 49.7778 108.42 49.4494C108.42 49.054 108.535 48.7072 108.767 48.4092C108.998 48.105 109.375 47.8069 109.898 47.5149C109.643 47.2594 109.46 47.0222 109.351 46.8032C109.241 46.5781 109.187 46.347 109.187 46.1097C109.187 45.6596 109.354 45.2977 109.688 45.0239C110.029 44.7441 110.479 44.6042 111.039 44.6042C111.556 44.6042 111.969 44.7319 112.28 44.9874C112.59 45.2368 112.745 45.5775 112.745 46.0094C112.745 46.3379 112.641 46.6299 112.435 46.8853C112.235 47.1408 111.903 47.3993 111.44 47.6609L112.818 48.9749C112.97 48.6768 113.089 48.3179 113.174 47.8982L114.095 48.1993C113.974 48.765 113.782 49.2516 113.52 49.6592L114.324 50.4257L113.695 51.1648ZM111.039 45.4163C110.79 45.4163 110.592 45.4801 110.446 45.6079C110.3 45.7295 110.227 45.8908 110.227 46.0915C110.227 46.2375 110.267 46.3774 110.345 46.5112C110.425 46.639 110.576 46.8154 110.801 47.0405C111.166 46.8397 111.419 46.6663 111.559 46.5204C111.705 46.3683 111.778 46.204 111.778 46.0276C111.778 45.839 111.711 45.69 111.577 45.5805C111.449 45.471 111.27 45.4163 111.039 45.4163ZM110.829 50.225C111.358 50.225 111.82 50.0637 112.216 49.7413L110.528 48.1263C110.163 48.327 109.904 48.5217 109.753 48.7103C109.606 48.8928 109.533 49.0996 109.533 49.3307C109.533 49.5984 109.652 49.8143 109.889 49.9786C110.127 50.1428 110.44 50.225 110.829 50.225ZM124.055 47.7978H125.176V50.3436C124.848 50.6052 124.465 50.8059 124.027 50.9458C123.589 51.0857 123.139 51.1557 122.677 51.1557C122.026 51.1557 121.439 51.0158 120.916 50.7359C120.392 50.4501 119.982 50.0577 119.684 49.5589C119.385 49.06 119.236 48.4974 119.236 47.8708C119.236 47.2442 119.385 46.6816 119.684 46.1827C119.982 45.6839 120.392 45.2946 120.916 45.0148C121.445 44.7289 122.038 44.5859 122.695 44.5859C123.23 44.5859 123.717 44.6742 124.155 44.8505C124.593 45.0269 124.96 45.2855 125.259 45.6261L124.511 46.3561C124.024 45.8695 123.437 45.6261 122.75 45.6261C122.299 45.6261 121.898 45.7204 121.545 45.909C121.198 46.0976 120.925 46.3622 120.724 46.7028C120.53 47.0435 120.432 47.4328 120.432 47.8708C120.432 48.2966 120.53 48.6799 120.724 49.0205C120.925 49.3611 121.198 49.6288 121.545 49.8235C121.898 50.0181 122.297 50.1155 122.74 50.1155C123.239 50.1155 123.677 50.006 124.055 49.787V47.7978ZM131.832 51.0644L130.528 49.1939C130.473 49.2 130.391 49.203 130.281 49.203H128.84V51.0644H127.654V44.6772H130.281C130.835 44.6772 131.316 44.7684 131.724 44.9509C132.137 45.1334 132.454 45.395 132.672 45.7356C132.891 46.0763 133.001 46.4808 133.001 46.9492C133.001 47.4298 132.882 47.8434 132.645 48.1902C132.413 48.5369 132.079 48.7954 131.642 48.9658L133.11 51.0644H131.832ZM131.806 46.9492C131.806 46.5416 131.672 46.2284 131.404 46.0094C131.136 45.7904 130.744 45.6809 130.227 45.6809H128.84V48.2267H130.227C130.744 48.2267 131.136 48.1172 131.404 47.8982C131.672 47.6731 131.806 47.3568 131.806 46.9492ZM138.224 51.1557C137.573 51.1557 136.987 51.0158 136.463 50.7359C135.94 50.4501 135.529 50.0577 135.231 49.5589C134.933 49.054 134.784 48.4913 134.784 47.8708C134.784 47.2503 134.933 46.6907 135.231 46.1919C135.529 45.687 135.94 45.2946 136.463 45.0148C136.987 44.7289 137.573 44.5859 138.224 44.5859C138.875 44.5859 139.462 44.7289 139.985 45.0148C140.508 45.2946 140.919 45.6839 141.217 46.1827C141.515 46.6816 141.664 47.2442 141.664 47.8708C141.664 48.4974 141.515 49.06 141.217 49.5589C140.919 50.0577 140.508 50.4501 139.985 50.7359C139.462 51.0158 138.875 51.1557 138.224 51.1557ZM138.224 50.1155C138.65 50.1155 139.033 50.0212 139.374 49.8326C139.715 49.638 139.982 49.3703 140.177 49.0296C140.371 48.6829 140.469 48.2966 140.469 47.8708C140.469 47.445 140.371 47.0617 140.177 46.7211C139.982 46.3744 139.715 46.1067 139.374 45.9181C139.033 45.7235 138.65 45.6261 138.224 45.6261C137.799 45.6261 137.415 45.7235 137.074 45.9181C136.734 46.1067 136.466 46.3744 136.272 46.7211C136.077 47.0617 135.98 47.445 135.98 47.8708C135.98 48.2966 136.077 48.6829 136.272 49.0296C136.466 49.3703 136.734 49.638 137.074 49.8326C137.415 50.0212 137.799 50.1155 138.224 50.1155ZM146.79 51.1557C146.146 51.1557 145.561 51.0158 145.038 50.7359C144.522 50.4501 144.114 50.0577 143.816 49.5589C143.524 49.06 143.378 48.4974 143.378 47.8708C143.378 47.2442 143.527 46.6816 143.825 46.1827C144.123 45.6839 144.531 45.2946 145.047 45.0148C145.57 44.7289 146.155 44.5859 146.799 44.5859C147.323 44.5859 147.8 44.6772 148.232 44.8597C148.664 45.0422 149.029 45.3068 149.327 45.6535L148.561 46.3744C148.099 45.8755 147.529 45.6261 146.855 45.6261C146.416 45.6261 146.024 45.7235 145.677 45.9181C145.33 46.1067 145.06 46.3713 144.865 46.712C144.671 47.0526 144.573 47.4389 144.573 47.8708C144.573 48.3027 144.671 48.689 144.865 49.0296C145.06 49.3703 145.33 49.638 145.677 49.8326C146.024 50.0212 146.416 50.1155 146.855 50.1155C147.529 50.1155 148.099 49.863 148.561 49.3581L149.327 50.0881C149.029 50.4348 148.661 50.6994 148.223 50.8819C147.791 51.0644 147.313 51.1557 146.79 51.1557ZM156.167 50.0698V51.0644H151.376V44.6772H156.039V45.6718H152.562V47.3324H155.646V48.3088H152.562V50.0698H156.167ZM162.58 51.0644L161.276 49.1939C161.22 49.2 161.138 49.203 161.029 49.203H159.587V51.0644H158.401V44.6772H161.029C161.583 44.6772 162.063 44.7684 162.471 44.9509C162.885 45.1334 163.201 45.395 163.42 45.7356C163.639 46.0763 163.749 46.4808 163.749 46.9492C163.749 47.4298 163.63 47.8434 163.393 48.1902C163.161 48.5369 162.827 48.7954 162.389 48.9658L163.857 51.0644H162.58ZM162.553 46.9492C162.553 46.5416 162.419 46.2284 162.151 46.0094C161.883 45.7904 161.492 45.6809 160.974 45.6809H159.587V48.2267H160.974C161.492 48.2267 161.883 48.1172 162.151 47.8982C162.419 47.6731 162.553 47.3568 162.553 46.9492ZM168.654 48.8106V51.0644H167.468V48.8289L164.959 44.6772H166.227L168.097 47.7887L169.987 44.6772H171.155L168.654 48.8106Z" fill="#253D4E"/>
<path d="M98.9824 5.98547C99.7258 5.98547 100.33 6.23326 100.795 6.72884C101.259 7.22441 101.491 7.84388 101.491 8.58725V35.6736C101.491 36.4789 101.212 37.1603 100.655 37.7178C100.128 38.2444 99.4629 38.5076 98.6576 38.5076C98.2549 38.5076 97.8364 38.4457 97.4027 38.3218C97.0001 38.1669 96.6904 37.9656 96.4735 37.7178L78.2147 14.5342L79.4226 13.7908V35.9059C79.4226 36.6492 79.1749 37.2687 78.6793 37.7643C78.2147 38.2598 77.5952 38.5076 76.8209 38.5076C76.0775 38.5076 75.4735 38.2598 75.0089 37.7643C74.5443 37.2687 74.312 36.6492 74.312 35.9059V8.81955C74.312 8.01424 74.5753 7.34831 75.1018 6.82176C75.6594 6.26424 76.3408 5.98547 77.1461 5.98547C77.5797 5.98547 78.0288 6.07839 78.4934 6.26423C78.958 6.4191 79.2987 6.66689 79.5156 7.0076L97.2169 29.5873L96.4267 30.1448V8.58725C96.4267 7.84388 96.6594 7.22441 97.124 6.72884C97.5886 6.23326 98.2081 5.98547 98.9824 5.98547ZM119.469 38.9722C116.837 38.9722 114.544 38.4302 112.593 37.3461C110.673 36.2311 109.186 34.7289 108.133 32.8395C107.111 30.9501 106.599 28.8129 106.599 26.428C106.599 23.6404 107.157 21.2709 108.272 19.3196C109.418 17.3373 110.905 15.8196 112.732 14.7665C114.56 13.7134 116.496 13.1868 118.54 13.1868C120.12 13.1868 121.606 13.512 123 14.1625C124.425 14.8129 125.679 15.7111 126.763 16.8572C127.847 17.9722 128.699 19.2731 129.319 20.7598C129.969 22.2466 130.294 23.8262 130.294 25.4988C130.263 26.2421 129.969 26.8461 129.412 27.3107C128.854 27.7753 128.204 28.0076 127.46 28.0076H109.713L108.319 23.3616H125.369L124.347 24.2908V23.0364C124.285 22.1381 123.96 21.3328 123.372 20.6204C122.814 19.9081 122.102 19.3505 121.235 18.9479C120.398 18.5142 119.5 18.2974 118.54 18.2974C117.611 18.2974 116.744 18.4213 115.938 18.6691C115.133 18.9169 114.436 19.335 113.847 19.9235C113.259 20.512 112.794 21.3019 112.453 22.293C112.113 23.2842 111.943 24.5386 111.943 26.0563C111.943 27.7289 112.283 29.1536 112.965 30.3306C113.677 31.4766 114.575 32.3594 115.66 32.9789C116.775 33.5674 117.952 33.8616 119.19 33.8616C120.337 33.8616 121.25 33.7687 121.931 33.5828C122.613 33.397 123.155 33.1802 123.558 32.9324C123.991 32.6536 124.378 32.4213 124.719 32.2355C125.276 31.9567 125.803 31.8174 126.299 31.8174C126.98 31.8174 127.537 32.0497 127.971 32.5143C128.436 32.9789 128.668 33.5209 128.668 34.1404C128.668 34.9767 128.235 35.7355 127.367 36.4169C126.562 37.0983 125.431 37.7023 123.975 38.2289C122.52 38.7244 121.018 38.9722 119.469 38.9722ZM133.485 34.6514C133.175 34.2178 133.036 33.6603 133.067 32.9789C133.098 32.2974 133.5 31.709 134.275 31.2134C134.77 30.9036 135.297 30.7797 135.854 30.8417C136.412 30.8727 136.954 31.1514 137.481 31.678C138.379 32.5762 139.323 33.2731 140.314 33.7687C141.306 34.2643 142.545 34.5121 144.031 34.5121C144.496 34.4811 145.007 34.4191 145.565 34.3262C146.122 34.2023 146.602 33.9545 147.005 33.5828C147.438 33.1802 147.655 32.5762 147.655 31.7709C147.655 31.0895 147.423 30.5474 146.959 30.1448C146.494 29.7421 145.875 29.4014 145.1 29.1227C144.357 28.8439 143.521 28.5806 142.591 28.3328C141.631 28.0541 140.64 27.7443 139.618 27.4036C138.627 27.0629 137.713 26.6293 136.876 26.1028C136.04 25.5452 135.359 24.8174 134.832 23.9191C134.306 23.0209 134.043 21.8904 134.043 20.5275C134.043 18.9789 134.476 17.6625 135.344 16.5784C136.211 15.4943 137.326 14.658 138.689 14.0696C140.083 13.4811 141.538 13.1868 143.056 13.1868C144.016 13.1868 145.022 13.3107 146.075 13.5585C147.129 13.7753 148.136 14.147 149.096 14.6735C150.056 15.1691 150.861 15.835 151.512 16.6713C151.852 17.1359 152.053 17.6935 152.115 18.3439C152.177 18.9943 151.883 19.5828 151.233 20.1094C150.768 20.4811 150.226 20.6514 149.606 20.6204C148.987 20.5585 148.476 20.3417 148.074 19.97C147.547 19.2886 146.835 18.7465 145.937 18.3439C145.069 17.9412 144.062 17.7399 142.916 17.7399C142.452 17.7399 141.941 17.8019 141.383 17.9258C140.857 18.0187 140.392 18.251 139.99 18.6227C139.587 18.9634 139.385 19.5209 139.385 20.2952C139.385 21.0076 139.618 21.5806 140.083 22.0143C140.547 22.4169 141.167 22.7576 141.941 23.0364C142.746 23.2842 143.598 23.532 144.496 23.7797C145.425 24.0275 146.37 24.3218 147.33 24.6625C148.291 25.0032 149.173 25.4523 149.978 26.0098C150.783 26.5674 151.434 27.2952 151.929 28.1935C152.425 29.0607 152.673 30.1758 152.673 31.5386C152.673 33.1182 152.208 34.4656 151.279 35.5806C150.35 36.6957 149.189 37.5475 147.795 38.1359C146.401 38.6935 144.976 38.9722 143.521 38.9722C141.693 38.9722 139.866 38.6625 138.038 38.043C136.211 37.3926 134.693 36.2621 133.485 34.6514ZM157.599 14.116H168.61C169.353 14.116 169.973 14.3638 170.468 14.8594C170.964 15.355 171.212 15.9744 171.212 16.7178C171.212 17.4302 170.964 18.0342 170.468 18.5297C169.973 18.9943 169.353 19.2266 168.61 19.2266H157.599C156.856 19.2266 156.236 18.9789 155.741 18.4833C155.245 17.9877 154.998 17.3682 154.998 16.6249C154.998 15.9125 155.245 15.324 155.741 14.8594C156.236 14.3638 156.856 14.116 157.599 14.116ZM162.57 8.30849C163.375 8.30849 164.026 8.58725 164.521 9.14477C165.048 9.67132 165.312 10.3372 165.312 11.1426V31.8174C165.312 32.251 165.389 32.6072 165.544 32.8859C165.729 33.1647 165.962 33.366 166.241 33.4899C166.551 33.6138 166.875 33.6758 167.216 33.6758C167.588 33.6758 167.929 33.6138 168.238 33.4899C168.548 33.3351 168.905 33.2576 169.307 33.2576C169.741 33.2576 170.128 33.459 170.468 33.8616C170.84 34.2643 171.026 34.8218 171.026 35.5342C171.026 36.4014 170.546 37.1138 169.586 37.6713C168.657 38.2289 167.65 38.5076 166.566 38.5076C165.915 38.5076 165.188 38.4612 164.382 38.3682C163.608 38.2444 162.865 37.9811 162.152 37.5784C161.471 37.1448 160.898 36.4944 160.433 35.6271C159.968 34.7598 159.736 33.5674 159.736 32.0497V11.1426C159.736 10.3372 159.999 9.67132 160.526 9.14477C161.083 8.58725 161.765 8.30849 162.57 8.30849Z" fill="#3BB77E"/>
</g>
<defs>
<clipPath id="clip0_1_5">
<rect width="179.981" height="55.25" fill="white" transform="translate(0.509277)"/>
</clipPath>
</defs>
</svg>
